<svg
   xmlns="http://www.w3.org/2000/svg"
   width="256"
   height="256"
   viewBox="0 0 256 256"
   version="1.1">
  <g id="hbsnow">
    <path
       style="fill:#f9f1f0"
       d="M 0,128 0,0 l 128,0 128,0 0,128 0,128 -128,0 -128,0 0,-128 z"/>
    <path
       style="fill:#e7c7a1"
       d="m 116,253.96016 c 0,-1.12191 0.8531,-3.71206 1.89579,-5.75588 3.3151,-6.49815 3.0924,-8.23589 -1.46835,-11.45724 l -4.07255,-2.87653 -8.77984,1.53249 c -4.828907,0.84287 -10.196257,2.42857 -11.927441,3.52378 -9.484683,6.00031 -10.398337,5.97958 -14.724598,-0.33419 -1.324367,-1.93279 -3.423831,-4.05785 -4.665476,-4.72235 C 71.015891,233.20573 70,232.28808 70,231.83102 70,231.37396 68.872064,231 67.493475,231 c -1.740467,0 -4.312027,1.83375 -8.414091,6 -6.471376,6.57263 -7.650223,6.91802 -15.714549,4.60415 -9.180014,-2.63398 -14.028269,-3.50492 -16.260812,-2.9211 -1.229491,0.32152 -3.253612,0.0397 -4.498047,-0.62633 C 20.88385,237.13506 18.493501,237.1031 12.599324,237.9229 8.3401005,238.51531 3.7628428,239 2.4276405,239 L 0,239 l 0,-39.36133 0,-39.36133 2.4219134,0.46298 c 1.3320524,0.25464 6.4882185,-0.49168 11.4581466,-1.65848 12.004558,-2.81833 15.205939,-2.86097 24.371705,-0.32463 7.432543,2.05672 8.132271,2.08351 16.991701,0.65061 8.628416,-1.39555 9.487909,-1.37577 12.986762,0.29886 2.060754,0.98633 3.751989,2.13082 3.758299,2.54332 0.0352,2.30091 10.237461,-0.90771 14.261974,-4.48541 1.692367,-1.50447 4.690837,-2.97856 6.663265,-3.27574 1.972429,-0.29718 7.267054,-1.20374 11.765834,-2.01459 11.19925,-2.01851 13.60843,-1.95714 12.8831,0.3282 -0.31464,0.99135 0.0772,2.67885 0.87078,3.75 1.42768,1.92705 1.45896,1.92649 2.97289,-0.0525 2.23304,-2.91896 1.9274,-6.66048 -0.78285,-9.58336 -4.12408,-4.44764 -4.07867,-6.11365 0.45384,-16.64988 l 4.20149,-9.76676 -1.18346,-8.35644 c -0.6509,-4.59605 -2.10221,-12.224895 -3.22513,-16.952995 -1.12292,-4.728101 -1.84,-10.192701 -1.59351,-12.143556 0.26079,-2.063955 -0.32824,-5.63268 -1.40876,-8.535293 -2.31946,-6.230787 -4.08388,-19.142902 -3.67697,-26.908206 0.23284,-4.443385 0.76303,-6.168435 2.15144,-7 1.59977,-0.958151 3.24632,0.370557 12.5,10.087065 C 142.87788,65.427971 150.46263,71 156.48804,71 c 1.31666,0 2.63099,0.383574 2.92073,0.852387 0.60055,0.971715 11.68882,2.468316 18.98433,2.562346 4.76893,0.06146 5.04455,-0.101605 10.86073,-6.425834 6.66409,-7.246208 12.92386,-16.111106 19.97078,-28.28201 5.28311,-9.124573 8.27599,-12.044527 10.90384,-10.638146 2.72001,1.455709 5.62562,7.071451 6.17327,11.931257 1.30763,11.603883 2.00318,14.266972 3.85257,14.750598 2.25526,0.589763 2.35209,3.262316 0.35653,9.840471 -1.91439,6.310637 -1.89765,9.888917 0.0602,12.877057 1.19651,1.826095 1.31571,2.874904 0.5,4.399075 C 230.48198,83.967925 230,86.221543 230,87.875242 c 0,1.653698 -0.50091,3.316305 -1.11314,3.694681 -0.73402,0.453651 -0.89275,2.60239 -0.46604,6.309017 0.95531,8.29841 0.92292,11.81109 -0.18553,20.12106 -1.68723,12.64908 -3.78022,14.96801 -12.2825,13.60844 -3.92453,-0.62756 -4.45143,-0.22813 -4.04475,3.06615 0.0797,0.64603 -0.31693,1.46009 -0.88152,1.80902 -0.56459,0.34893 -1.02652,1.52832 -1.02652,2.62086 0,1.09254 -1.10455,3.09098 -2.45455,4.44098 -1.93685,1.93686 -3.48599,2.45455 -7.34501,2.45455 -6.72967,0 -7.88594,1.60049 -7.40506,10.25 0.3652,6.56889 0.44751,6.75 3.06744,6.75 2.90318,0 6.83372,2.29202 8.96248,5.2263 0.72891,1.00474 2.07891,1.70235 3,1.55025 1.07392,-0.17734 1.78673,0.51076 1.987,1.91813 0.2581,1.81377 -0.39276,2.38453 -3.75,3.28854 -3.86191,1.03991 -5.28699,3.14184 -3.0623,4.51678 0.55,0.33992 1,1.65847 1,2.93011 0,1.52084 1.19543,3.12619 3.49317,4.69099 1.92124,1.30839 3.49624,2.65069 3.5,2.98288 0.004,0.33218 1.08534,1.7677 2.40351,3.19003 1.31817,1.42234 2.58933,3.16401 2.82479,3.87039 0.23546,0.70638 0.96343,-0.84163 1.61772,-3.44003 1.30498,-5.18256 2.61392,-6.0395 3.54692,-2.32211 0.33161,1.32124 2.76834,3.95795 5.41495,5.85935 4.21971,3.03156 4.97626,4.14169 6.14627,9.01883 C 235.11318,215.30873 233.15297,221 227.87756,221 226.22973,221 225,221.53856 225,222.26022 c 0,0.69312 -1.02964,2.38062 -2.28808,3.75 -1.25845,1.36938 -2.88187,3.93736 -3.60759,5.70662 -2.58385,6.29923 -4.89816,6.9077 -16.35687,4.30052 -7.56046,-1.72022 -7.8506,-1.71541 -11.71031,0.19422 -2.17677,1.07698 -5.56957,3.83246 -7.53956,6.12328 -6.00805,6.98655 -6.91162,7.83489 -9.35409,8.78243 -1.76139,0.68332 -3.15035,0.42833 -5.5,-1.00973 -2.67086,-1.63465 -5.58281,-1.98601 -19.36718,-2.33693 -13.96439,-0.3555 -16.50586,-0.66838 -18.25,-2.24681 C 129.91185,244.51523 129,242.63477 129,241.34501 c 0,-3.33395 -2.51855,-2.92154 -4,0.65499 -0.68345,1.65 -1.56305,3 -1.95465,3 -0.39161,0 -0.71202,1.35194 -0.71202,3.00432 0,1.65238 -0.60104,4.12738 -1.33564,5.5 C 119.35761,256.56884 116,256.87509 116,253.96016 z m 99.61507,-49.39942 c 0.30376,-0.7916 0.0783,-2.2541 -0.50098,-3.25 -0.5793,-0.99591 -1.06696,-1.24824 -1.08368,-0.56074 -0.0436,1.79419 -2.03041,1.54956 -2.03041,-0.25 0,-0.825 -0.45857,-1.5 -1.01905,-1.5 -0.91623,0 -0.43514,4.19751 0.71633,6.25 0.71986,1.28315 3.33763,0.8226 3.91779,-0.68926 z M 171.75,254.33772 c 0.6875,-0.27741 1.8125,-0.27741 2.5,0 0.6875,0.27741 0.125,0.50439 -1.25,0.50439 -1.375,0 -1.9375,-0.22698 -1.25,-0.50439 z"/>
    <path
       style="fill:#deb68d"
       d="m 116,254.0411 c 0,-1.5299 3.42456,-7.98942 4.25,-8.0165 1.10714,-0.0363 0.91102,4.80602 -0.28518,7.04114 C 118.90374,255.04839 116,255.76272 116,254.0411 z m 56.5,-3.82912 c -1.1,-0.23015 -2.78297,-1.11264 -3.73994,-1.9611 -1.37896,-1.2226 -3.24146,-1.41676 -8.97749,-0.93587 -14.25299,1.19492 -20.50301,-0.49001 -24.28257,-6.54628 -0.55,-0.88131 -2.84616,-1.89315 -5.10259,-2.24855 -3.85616,-0.60735 -4.17642,-0.46791 -5.33188,2.32161 -0.67611,1.63227 -2.05576,3.1839 -3.06589,3.44805 -1.57416,0.41166 -1.76145,0.0172 -1.31073,-2.76022 0.44414,-2.73693 0.0818,-3.54802 -2.33153,-5.21938 C 114.72781,233.79659 107.60066,231 104.82415,231 c -1.17445,0 -3.75284,1.23569 -5.729759,2.74599 -3.473737,2.65381 -5.814604,4.06666 -12.962858,7.82383 -4.053249,2.13042 -5.702704,1.37708 -8.747881,-3.99532 C 75.141552,233.61891 70.209354,230 67.060407,230 c -1.040189,0 -4.569034,2.745 -7.841876,6.1 -6.632353,6.79884 -9.172065,7.48566 -16.718531,4.52124 -2.2,-0.86421 -6.475,-1.69503 -9.5,-1.84627 -3.025,-0.15123 -5.774746,-0.64999 -6.110546,-1.10835 -1.158565,-1.5814 -16.192881,-1.18854 -18.4526826,0.48218 -0.5847758,0.43234 -2.7222758,0.51685 -4.75,0.1878 L 0,237.73832 0,201.36916 C 0,165.47937 0.0267748,165 2.0313848,165 c 1.1172616,0 2.282251,-0.65375 2.5888653,-1.45277 0.3066142,-0.79902 1.7549911,-1.446 3.2186152,-1.43773 1.4636241,0.008 4.9111347,-0.26956 7.6611347,-0.6174 8.907319,-1.12668 24.849979,-0.83548 29.5,0.53883 5.905783,1.74545 6.256053,1.75238 7.907834,0.15647 0.880079,-0.85031 2.37956,-1.11767 4,-0.71321 1.425691,0.35585 3.942166,0.9069 5.592166,1.22456 1.65,0.31765 3.298104,1.04069 3.662454,1.60676 1.944172,3.02055 15.290092,-1.25742 22.848997,-7.32414 1.387739,-1.11378 5.30179,-2.46504 8.747745,-3.01999 5.485294,-0.88338 6.706884,-0.76425 10.144024,0.98925 4.04768,2.06497 8.42581,6.70797 7.59417,8.0536 -0.26146,0.42304 0.19468,1.32524 1.01362,2.00491 1.20823,1.00274 1.48899,0.94747 1.48899,-0.29308 0,-1.05716 0.64311,-1.36064 2.08453,-0.9837 1.54222,0.40329 1.74487,0.75504 0.77897,1.352 -0.71807,0.44379 -1.09361,0.98997 -0.83454,1.21374 0.93291,0.80576 9.92051,2.7019 12.80687,2.7019 1.75306,0 3.19363,0.63439 3.55012,1.56338 0.32996,0.85986 1.05119,1.28449 1.60273,0.94361 0.55155,-0.34087 1.52696,0.53061 2.16758,1.93662 1.14869,2.52111 2.84374,3.46996 2.84374,1.59187 0,-0.53048 -1.0647,-2.89298 -2.36601,-5.25 -1.3013,-2.35701 -2.23397,-5.12171 -2.07259,-6.14376 0.44031,-2.78857 4.41484,-6.57452 9.1886,-8.7526 2.3375,-1.06651 4.25,-2.32152 4.25,-2.78892 0,-0.46739 2.025,-2.96328 4.5,-5.54642 2.475,-2.58313 4.5,-5.11829 4.5,-5.63367 0,-0.51538 0.90533,-0.37167 2.01184,0.31936 1.10652,0.69103 1.79564,1.81984 1.53139,2.50847 -0.26425,0.68863 0.18042,1.25206 0.98815,1.25206 0.80774,0 1.46862,0.45 1.46862,1 0,0.55 -0.40186,1 -0.89301,1 -2.37737,0 -1.88717,3.37367 0.89436,6.1552 3.31885,3.31884 3.76348,4.35227 1.49865,3.48317 -1.90471,-0.7309 -1.89256,0.48634 0.0513,5.13864 1.88755,4.51756 8.07461,10.58052 10.03098,9.82979 0.77974,-0.29922 1.41772,-0.10815 1.41772,0.42458 0,0.53274 -0.67928,0.96862 -1.50951,0.96862 -1.14949,0 -1.4029,0.85961 -1.06249,3.60418 0.58762,4.7377 0.99079,4.99816 4.03277,2.60534 1.69824,-1.33584 3.82978,-1.95019 6.30266,-1.81655 4.2924,0.23198 6.28282,1.27617 7.82881,4.10703 0.60073,1.1 2.28823,2.58705 3.75,3.30457 3.04976,1.49697 3.83491,6.19543 1.03532,6.19543 -1.30059,0 -1.38479,-0.28637 -0.42441,-1.44355 0.98815,-1.19065 0.79062,-1.42244 -1.12756,-1.32308 -1.27907,0.0663 -2.97234,0.60336 -3.76282,1.19355 -1.16654,0.87097 -1.29784,0.70213 -0.69715,-0.89644 0.40705,-1.08323 0.42021,-1.64964 0.0292,-1.25868 -0.39096,0.39097 -1.40113,0.15225 -2.24481,-0.53048 -1.22358,-0.99015 -1.38201,-0.98839 -0.78299,0.009 0.41304,0.6875 0.27442,1.25 -0.30804,1.25 C 190.47656,188 190,187.47156 190,186.82569 c 0,-0.64588 -1.0125,-0.23232 -2.25,0.91902 -1.2375,1.15133 -3.9375,2.40485 -6,2.7856 -4.02288,0.74265 -5.02814,2.90219 -1.75,3.75944 2.5729,0.67283 2.5634,3.48702 -0.0193,5.72701 -1.65904,1.43889 -1.84188,2.21809 -1.02475,4.3673 0.54702,1.43877 1.2603,2.61594 1.58507,2.61594 1.74404,0 4.62226,-2.41502 5.95901,-5 2.24078,-4.3332 4.56314,-5.23479 9.15069,-3.5525 2.11712,0.77637 3.28681,1.44328 2.59931,1.48204 -0.6875,0.0387 -1.25,1.19546 -1.25,2.57046 0,1.375 -0.39337,2.5 -0.87417,2.5 -0.48079,0 -2.81308,2.00069 -5.18288,4.44599 -2.3698,2.44529 -4.78892,4.15891 -5.37584,3.80804 -0.58691,-0.35087 -0.44951,0.12343 0.30533,1.05401 0.96808,1.19345 1.02435,1.69196 0.19099,1.69196 -0.64981,0 -0.92929,0.40803 -0.62107,0.90674 0.30822,0.49871 -0.34022,0.67122 -1.44098,0.38337 -1.10076,-0.28786 -2.00138,-0.0828 -2.00138,0.45575 0,1.45588 -5.63894,8.28186 -6.29756,7.62325 -0.31181,-0.31182 -0.31382,0.40096 -0.004,1.58395 l 0.56247,2.15089 2.18422,-2.05197 C 180.92022,224.72632 184,224.33119 184,226.33924 c 0,0.86101 1.07119,1.27551 2.99981,1.16077 3.6443,-0.2168 9.1633,2.91135 8.44393,4.786 -0.28298,0.73744 -3.33839,2.78917 -6.78981,4.55939 -4.99272,2.56077 -6.52941,3.92135 -7.51862,6.65697 -1.43769,3.97583 -5.73661,7.31609 -8.63531,6.70961 z m 41.13133,-13.91399 c -0.38611,-0.3861 -2.30329,-0.59416 -4.2604,-0.46236 C 203.77804,236.21229 202,235.27079 202,231.93261 202,230.31968 201.52344,229 200.94098,229 c -0.58246,0 -0.80012,-0.41891 -0.48369,-0.9309 0.31644,-0.512 0.11799,-1.21356 -0.44098,-1.55902 C 199.45734,226.16462 199,224.63501 199,223.11094 c 0,-2.50658 0.31014,-2.74917 3.25,-2.54203 1.7875,0.12594 4.21171,0.53866 5.38714,0.91716 1.30897,0.42149 2.4382,0.20104 2.91405,-0.56889 0.55462,-0.89739 0.27688,-1.06518 -0.97071,-0.58644 -1.16634,0.44757 -1.60215,0.25464 -1.3103,-0.58006 0.24052,-0.68787 1.17812,-1.11845 2.08356,-0.95684 0.90544,0.16161 1.64626,-0.20245 1.64626,-0.80902 0,-0.60657 0.39969,-0.85583 0.88819,-0.55392 1.21435,0.75051 4.10668,-8.4279 4.13405,-13.1188 0.0129,-2.20476 0.83541,-4.8662 1.95084,-6.3121 1.87654,-2.43252 2.00416,-2.45446 4.72776,-0.81302 1.53954,0.92785 2.79916,2.12785 2.79916,2.66667 0,0.53883 0.3375,1.31718 0.75,1.72968 0.4125,0.4125 0.75,3.15 0.75,6.08334 0,4 -0.5,5.83333 -2,7.33333 -1.1,1.1 -2,2.7266 -2,3.61467 0,0.88807 -1.05964,3.70057 -2.35475,6.25 -1.29512,2.54943 -3.08784,6.32283 -3.98382,8.38533 -1.5964,3.67478 -2.62521,4.45288 -4.0301,3.04799 z M 190,222 c 0,-0.55 0.45,-1 1,-1 0.55,0 1,0.45 1,1 0,0.55 -0.45,1 -1,1 -0.55,0 -1,-0.45 -1,-1 z m 4,-12.25511 c 0,-0.275 0.675,-1.0602 1.5,-1.74489 0.825,-0.68469 1.5,-1.01989 1.5,-0.74489 0,0.275 -0.675,1.0602 -1.5,1.74489 -0.825,0.68469 -1.5,1.01989 -1.5,0.74489 z m 6.16667,-8.34023 c -0.0917,-0.77256 -0.24167,-2.09902 -0.33334,-2.94769 -0.0917,-0.84867 -0.72267,-1.32968 -1.40223,-1.0689 -1.91535,0.73499 -2.48973,-0.47229 -0.95491,-2.00712 2.64608,-2.64608 3.86725,-1.84748 4.95782,3.24226 0.47575,2.22034 0.26884,3.27684 -0.71574,3.65466 -0.76171,0.2923 -1.45994,-0.10065 -1.5516,-0.87321 z M 185,167.79845 c 0,-1.13801 1.12242,-3.10933 2.49427,-4.38072 l 2.49426,-2.3116 0.63799,2.54195 c 0.4728,1.88377 0.85871,2.19369 1.49042,1.19694 0.46884,-0.73976 0.85933,-0.86853 0.86775,-0.28615 0.0292,2.02301 -2.50045,4.35813 -5.23469,4.83205 -2.26752,0.39301 -2.75,0.11362 -2.75,-1.59247 z M 128.5,167 c -0.33992,-0.55 -0.14148,-1 0.44098,-1 0.58246,0 1.05902,0.45 1.05902,1 0,0.55 -0.19844,1 -0.44098,1 -0.24254,0 -0.7191,-0.45 -1.05902,-1 z m 4.51261,0.029 c -1.16897,-0.73909 -1.0084,-0.90434 0.75,-0.77188 1.23056,0.0927 2.23739,0.52278 2.23739,0.95573 0,1.0435 -1.159,0.97217 -2.98739,-0.18385 z m 47.33933,-17.72132 c -1.18144,-0.23101 -2.37681,-1.29473 -2.65638,-2.36382 -0.27958,-1.0691 -1.18169,-1.94381 -2.0047,-1.94381 -0.82301,0 -3.1392,-2.475 -5.14708,-5.5 -3.05084,-4.59629 -4.13484,-5.5 -6.59723,-5.5 -1.6206,0 -2.94655,-0.375 -2.94655,-0.83333 0,-0.45834 -0.57055,-0.83334 -1.26788,-0.83334 -0.69733,0 -2.50721,-0.31105 -4.02196,-0.69123 -2.13239,-0.53519 -2.89429,-0.29065 -3.37519,1.08334 -0.34162,0.97601 -2.24424,3.48374 -4.22805,5.57275 -1.9838,2.089 -3.41392,4.114 -3.17803,4.5 0.23589,0.38599 -0.37991,0.85757 -1.36843,1.04794 -1.10552,0.21291 -1.53657,-0.0758 -1.11987,-0.75 0.37259,-0.60287 0.20076,-1.09613 -0.38186,-1.09613 -0.58262,0 -2.26393,-2.15757 -3.73624,-4.79461 -1.47231,-2.63703 -3.72218,-5.58304 -4.99971,-6.54668 -2.31255,-1.74436 -2.32325,-1.73756 -2.42908,1.54461 -0.0585,1.81317 -0.20649,3.97168 -0.32895,4.79668 -0.12246,0.825 -0.29962,2.3426 -0.3937,3.37244 -0.14248,1.55968 -0.42543,1.66133 -1.69394,0.60856 -1.28737,-1.06842 -1.41575,-0.98466 -0.83006,0.5416 0.47674,1.24237 0.32793,1.57997 -0.47711,1.08243 C 126.52647,142.20734 126,142.38508 126,143 c 0,0.61492 -0.52647,0.79266 -1.16994,0.39497 -0.78665,-0.48618 -0.96074,-0.1779 -0.53138,0.94099 0.94699,2.46781 -1.57309,2.06529 -4.1336,-0.66024 -1.90447,-2.02721 -2.04206,-2.73018 -1.07649,-5.5 0.60888,-1.74665 1.73804,-3.23197 2.50924,-3.30072 0.77119,-0.0687 1.95851,-0.18125 2.63847,-0.25 0.67997,-0.0687 1.40688,-1.01068 1.61534,-2.09317 0.31276,-1.62403 0.12422,-1.75668 -1.07831,-0.75867 -2.32692,1.93117 -2.72926,0.39532 -1.20883,-4.6145 1.62481,-5.35376 1.79455,-11.89331 0.45874,-17.67399 -0.51032,-2.20843 -1.06182,-6.36901 -1.22555,-9.24572 -0.16373,-2.876716 -0.58045,-5.232317 -0.92605,-5.234671 -1.27977,-0.0087 -2.50203,-7.583192 -1.69503,-10.504279 0.89108,-3.225445 0.18071,-8.5 -1.14477,-8.5 -0.44509,0 -1.15134,-1.6875 -1.56945,-3.75 -0.4181,-2.0625 -0.97509,-4.65 -1.23775,-5.75 -0.26266,-1.1 -0.53316,-7.167989 -0.6011,-13.484421 -0.17031,-15.832296 0.18809,-15.81119 16.18483,0.95313 11.89803,12.468936 20.03236,18.896367 23.04198,18.206884 0.7427,-0.170146 1.06759,0.148162 0.72199,0.707352 -0.8777,1.420152 2.63025,3.09412 7.13669,3.405573 5.60259,0.387211 6.60466,1.303094 4.66484,4.263629 C 166.24239,82.279013 166.13102,83 166.99577,83 c 0.67419,0 0.26144,0.7875 -0.91723,1.75 -1.19134,0.972854 -2.77857,4.19246 -3.57416,7.25 -0.97154,3.733697 -2.42795,6.397934 -4.53505,8.29603 -3.58765,3.23178 -6.26212,2.96413 -9.56686,-0.957416 l -2.09753,-2.48902 -1.33933,3.233436 c -1.17971,2.84806 -1.09969,3.8999 0.67134,8.82521 1.10587,3.07547 2.42746,5.63062 2.93686,5.67813 0.50941,0.0475 1.60119,0.34499 2.42619,0.66108 0.825,0.3161 2.4,0.78868 3.5,1.05018 1.1,0.26151 2.74477,0.78327 3.65505,1.15947 1.26126,0.52126 1.81009,-0.0219 2.30668,-2.28286 1.27187,-5.79079 6.25873,-7.8104 9.54498,-3.86558 1.43503,1.72261 1.63519,1.67456 4.20727,-1.01012 1.89664,-1.97967 2.43496,-3.24854 1.80833,-4.26245 -0.70956,-1.14808 -1.36622,-1.21115 -3.20727,-0.30802 -1.27327,0.62461 -3.6735,1.2981 -5.33383,1.49666 l -3.0188,0.36102 0.66969,-7.792752 c 0.78804,-9.169901 3.48043,-16.458391 6.35777,-17.210893 1.10557,-0.289138 3.69763,-0.255881 5.76013,0.0739 4.44867,0.711323 4.95361,-0.340465 0.85018,-1.770929 -3.69049,-1.286511 -4.82072,-4.711636 -1.75765,-5.326504 1.18661,-0.238196 3.49421,-0.719801 5.12801,-1.070234 2.89404,-0.620741 8.29242,-5.642599 15.03713,-13.988341 2.69534,-3.33515 14.72652,-22.322777 17.42489,-27.5 0.43,-0.825 1.56453,-1.653864 2.52119,-1.84192 1.35882,-0.267114 1.59411,0.11576 1.07542,1.75 C 217.11278,34.220014 217.3031,35 218.0396,35 c 0.64591,0 0.94391,0.600589 0.66223,1.334641 -0.3143,0.81904 0.82263,1.939643 2.94295,2.900697 l 3.45511,1.566056 -1.55327,-2.370588 c -1.29085,-1.970087 -1.30961,-2.277088 -0.11105,-1.817157 0.79322,0.304387 1.67772,1.753338 1.96556,3.219891 0.28784,1.466553 1.06835,5.577886 1.73446,9.136296 0.66612,3.558409 1.73997,7.489187 2.38633,8.735062 0.91164,1.757175 0.87097,3.894629 -0.18132,9.530164 -0.74609,3.995716 -1.56537,7.831477 -1.82062,8.523913 -0.25526,0.692437 0.42333,1.813183 1.50796,2.490547 C 230.99475,79.477817 231.79786,83 230.11111,83 c -0.48889,0 -0.82639,0.7875 -0.75,1.75 0.0764,0.9625 -0.42361,1.6375 -1.11111,1.5 -0.6875,-0.1375 -1.25,0.425 -1.25,1.25 0,0.825 0.48575,1.5 1.07946,1.5 0.6864,0 0.83205,1.126414 0.4,3.09354 -0.95601,4.352677 -0.84432,9.73932 0.23189,11.1835 0.50125,0.67263 0.8275,2.23546 0.725,3.47296 -0.10249,1.2375 -0.2426,3.34286 -0.31135,4.67857 -0.0687,1.33572 -0.83214,3.13572 -1.69643,4 -0.86428,0.86429 -1.20178,1.57832 -0.75,1.58674 0.45179,0.008 0.14643,0.45153 -0.67857,0.98469 -1,0.64625 -1.08333,0.97448 -0.25,0.98469 1.50955,0.0185 1.59738,1.97142 0.24826,5.5199 -0.91021,2.39401 -1.14519,2.49134 -2.57143,1.0651 -2.23738,-2.23738 -4.71728,-1.95733 -10.45199,1.18031 -3.53152,1.93221 -4.90354,3.24816 -4.61371,4.42518 0.25527,1.03666 -0.0643,1.49223 -0.83835,1.19519 -0.76989,-0.29544 -1.48774,0.70444 -1.86693,2.60038 -0.88832,4.44161 -4.51477,7.55561 -10.99172,9.43851 -4.61272,1.34096 -5.68566,2.05908 -5.78013,3.86867 -0.0799,1.53057 -0.25233,1.7086 -0.55407,0.57207 -0.29773,-1.12144 -1.52069,-1.65 -3.81768,-1.65 -1.8588,0 -3.85947,-0.29656 -4.44594,-0.65902 C 179.47984,146.17852 179,146.11915 179,146.40905 c 0,0.28989 1.2375,1.19843 2.75,2.01898 2.77067,1.50311 2.53834,1.64928 -1.39806,0.8796 z"/>
    <path
       style="fill:#cd9c63"
       d="m 170.02225,248.03087 c -1.32984,-1.84506 -2.25316,-1.93052 -14.65414,-1.35646 l -13.23487,0.61267 -2.88357,-2.89354 c -1.58597,-1.59145 -3.34798,-3.72866 -3.91559,-4.74935 -0.698,-1.25517 -2.58584,-2.03096 -5.83288,-2.39694 -2.85456,-0.32176 -4.56718,-0.16303 -4.22445,0.39152 0.31703,0.51296 -0.25751,0.93266 -1.27675,0.93266 -1.01924,0 -1.67701,-0.28503 -1.4617,-0.6334 C 122.98761,237.21104 106.81534,230 104.73559,230 c -0.75658,0 -3.14409,1.47708 -5.305591,3.2824 -2.1615,1.80532 -5.054999,3.84814 -6.429999,4.53959 -1.375,0.69146 -3.625,1.91824 -5,2.72618 -4.091134,2.40391 -7.118023,1.43029 -10.294101,-3.31119 C 74.734056,232.8004 70.593666,230 67.006015,230 c -1.232508,0 -4.234235,2.2437 -7.29966,5.45627 -6.486109,6.79744 -8.973145,7.81974 -14.24341,5.85473 C 43.283325,240.49834 39.475,239.45833 37,238.99987 c -2.475,-0.45846 -5.241982,-1.12666 -6.148849,-1.48489 -0.906868,-0.35823 -1.975618,-0.12261 -2.375,0.52361 -0.544702,0.88135 -0.925575,0.85226 -1.524238,-0.1164 -1.175916,-1.90267 -15.894828,-1.72606 -18.5151416,0.22217 -0.5847758,0.43478 -2.7222758,0.52129 -4.75,0.19224 L 0,237.73832 l 0,-36.47757 0,-36.47757 2.5219589,0.63298 c 1.7677059,0.44366 2.6969264,0.17701 3.1069888,-0.8916 C 5.9507142,163.68605 6.6423903,163 7.1660058,163 c 0.5236155,0 0.7217411,0.37261 0.4402791,0.82803 -0.281462,0.45541 2.2715312,0.44739 5.6733181,-0.0178 3.401787,-0.46522 6.755517,-0.62695 7.452732,-0.35941 C 21.429551,163.71833 22,163.27365 22,162.46262 c 0,-1.1582 1.233813,-1.41969 5.75,-1.21862 3.660754,0.16298 5.671918,0.67192 5.535103,1.40069 -0.118194,0.62958 1.31274,1.32304 3.179854,1.54101 1.867113,0.21798 3.174759,0.0404 2.90588,-0.39469 C 39.101958,163.35595 38.158524,163 37.274316,163 c -0.884207,0 -1.339827,-0.26782 -1.012489,-0.59516 0.957071,-0.95707 6.71092,0.64013 6.463495,1.79419 -0.123927,0.57804 0.337178,1.25722 1.024678,1.5093 0.6875,0.25209 1.25,-0.0292 1.25,-0.625 C 45,164.4875 45.675,164 46.5,164 c 0.825,0 1.5,0.39317 1.5,0.8737 0,0.48054 1.4625,0.5551 3.25,0.1657 1.7875,-0.38941 3.1375,-1.23257 3,-1.8737 -0.1375,-0.64114 0.5375,-1.12084 1.5,-1.06602 2.222232,0.12658 7.085255,1.66241 5.75,1.81595 -3.01783,0.34703 2.766033,2.05597 7,2.06827 5.600231,0.0163 14.775836,-3.79749 20.246263,-8.41517 2.272607,-1.91835 4.971988,-2.97793 9,-3.53275 8.121247,-1.11863 12.704717,1.25727 15.587147,8.0798 1.94614,4.60638 2.46025,5.05907 7.36451,6.48478 4.48237,1.30306 7.9815,2.00799 11.56826,2.33054 0.4214,0.0379 1.51724,1.6439 2.43521,3.5689 1.52662,3.20135 2.03721,3.5 5.98382,3.5 3.09016,0 4.31479,-0.40898 4.31479,-1.44098 0,-0.79254 -0.40339,-1.6903 -0.89643,-1.99501 C 142.71891,173.70824 139,166.15008 139,164.19171 139,160.65359 145.36405,155 149.3468,155 c 1.34865,0 12.53799,-11.78187 11.84627,-12.4736 -0.28952,-0.28952 0.25392,-0.5264 1.20765,-0.5264 1.29612,0 1.56884,0.52054 1.07988,2.06111 -0.74907,2.36014 2.17145,16.60581 3.58326,17.47836 0.51488,0.31821 0.93614,1.39064 0.93614,2.38318 0,0.99254 1.03987,2.87849 2.31082,4.19099 3.8443,3.96999 6.68918,8.57258 6.68918,10.82212 0,3.11471 2.498,3.55788 5.99975,1.06442 3.76277,-2.67933 5.87389,-1.49934 5.22519,2.92056 -0.53437,3.64091 -2.65285,5.63534 -7.22494,6.80185 -2.82074,0.71968 -3.5634,1.43613 -3.82669,3.69161 -0.21099,1.80748 0.0546,2.56296 0.75,2.1332 1.99652,-1.23392 3.09536,0.43846 1.80621,2.74896 -0.67624,1.212 -1.58446,2.46598 -2.01827,2.78661 -1.18164,0.87335 0.89362,5.55143 2.78459,6.27706 2.29052,0.87896 5.21432,-0.89886 6.92787,-4.21251 1.60512,-3.10395 4.57629,-5.95196 4.57629,-4.3866 0,0.5532 0.9,1.24117 2,1.52883 2.56531,0.67084 2.63398,3.71025 0.0838,3.71025 -1.15728,0 -2.42998,1.16075 -3.21349,2.93082 -1.04968,2.37139 -2.16324,3.09052 -5.83382,3.76745 l -4.53651,0.83662 0.31313,3.99893 c 0.25328,3.23456 -0.17679,4.4592 -2.25,6.40687 C 176.4583,223.91808 176,224.04925 176,222.67431 176,221.54951 175.1692,221 173.46862,221 c -1.39227,0 -2.79041,-0.675 -3.10699,-1.5 C 169.53001,217.33285 168,217.65679 168,220 c 0,2.14203 -2.83475,2.76525 -4.59073,1.00927 C 162.01052,219.61052 158,222.61134 158,225.0567 c 0,2.52203 2.55021,2.49147 4.73203,-0.0567 2.40892,-2.81342 3.06691,-2.54298 4.88829,2.00912 2.13138,5.32684 5.18873,6.13664 9.8231,2.60183 4.04134,-3.08248 4.56383,-3.18168 4.53434,-0.86095 -0.028,2.20567 -2.79203,5.66476 -5.72776,7.16814 -3.0904,1.5826 -2.82163,3.42307 0.9652,6.60948 l 3.2152,2.70542 -2.77096,2.38348 c -3.37031,2.89901 -5.75317,3.0283 -7.63719,0.41435 z m 2.32494,-58.86202 c 0.91145,-1.00713 1.31869,-2.20428 0.90499,-2.66033 -0.4137,-0.45604 -0.24982,-0.54264 0.36417,-0.19243 0.614,0.35021 1.79717,-0.14014 2.62927,-1.08967 1.35367,-1.5447 1.34142,-1.90128 -0.11635,-3.38758 -1.51787,-1.54758 -1.90277,-1.52751 -5.62927,0.29361 -6.47145,3.16254 -11.33869,3.91328 -15.6781,2.41823 -3.42344,-1.17947 -3.8219,-1.14362 -3.8219,0.34378 0,0.91329 0.70052,2.66066 1.5567,3.88303 1.39574,1.9927 2.41373,2.22251 9.84502,2.22251 6.76356,0 8.59316,-0.33686 9.94547,-1.83115 z m 8.90281,49.25918 c 2.00621,-1.08839 2.75,-2.26155 2.75,-4.33752 0,-3.74748 2.47501,-5.96811 3.79513,-3.40508 0.51404,0.99802 0.71204,2.43971 0.44001,3.20377 -0.30225,0.84893 -0.0553,1.11766 0.63513,0.69098 0.62135,-0.38402 1.12973,-1.81249 1.12973,-3.17438 0,-2.16629 0.25029,-2.34222 2,-1.4058 1.1,0.5887 2,1.48298 2,1.98728 0,1.2608 -11.70638,8.02218 -13.80358,7.97268 -1.15471,-0.0273 -0.81827,-0.51644 1.05358,-1.53193 z m 22.10204,-7.51365 c 0.0814,-2.24709 -0.41454,-4.55219 -1.10204,-5.12244 -2.87861,-2.3877 0.51824,-4.54352 4.07244,-2.58459 3.63939,2.00589 5.09942,1.46497 6.92756,-2.56655 0.9625,-2.12257 1.75,-4.23077 1.75,-4.6849 0,-0.45414 0.50904,-2.0925 1.13121,-3.6408 0.62216,-1.54831 1.20307,-3.90874 1.29091,-5.2454 0.0878,-1.33667 0.75472,-2.62865 1.48195,-2.87106 1.07949,-0.35983 1.08378,-0.58811 0.0234,-1.24348 -1.87183,-1.15685 0.62884,-3.95516 3.53448,-3.95516 2.89739,0 4.57731,3.7389 4.40189,9.79705 -0.0783,2.7028 -0.32693,3.63971 -0.58468,2.20295 -0.24667,-1.375 -0.91679,-2.95 -1.48914,-3.5 -0.71584,-0.68787 -0.8641,-0.0636 -0.47502,2 0.61952,3.28584 -0.10675,6.10715 -4.56931,17.75 -3.1301,8.16646 -5.50778,9.93153 -7.74567,5.75 -0.5887,-1.1 -1.95072,-2 -3.02671,-2 -1.07599,0 -2.5184,0.9 -3.20536,2 -1.88869,3.02427 -2.57935,2.42803 -2.41589,-2.08562 z M 179,144.70918 c -3.76487,-1.81432 -6,-3.96617 -6,-5.77643 0,-2.06291 -2.7741,-4.49256 -6,-5.25501 -1.375,-0.32499 -3.4,-1.30873 -4.5,-2.18609 -1.94859,-1.5542 -1.93594,-1.57732 0.49216,-0.89918 2.2273,0.62205 2.34713,0.52128 1.12755,-0.94822 C 163.36918,128.73991 163.05104,128 163.41274,128 c 0.36169,0 0.16612,-0.9184 -0.43462,-2.04088 -1.0806,-2.01913 -1.12443,-2.0138 -4.11191,0.5 C 157.2054,127.8566 155.43746,129 154.93746,129 c -0.49999,0 -2.03323,1.6987 -3.40719,3.77489 -1.37396,2.07619 -3.88496,4.59413 -5.58001,5.59542 -2.93712,1.735 -3.17277,1.73829 -5.01608,0.0701 C 139.87038,137.47771 139,136.13139 139,135.4486 139,134.1136 132.49308,128 131.07219,128 c -0.47202,0 -1.13668,0.72568 -1.47703,1.61262 -0.49234,1.283 -0.91406,1.36761 -2.06319,0.41391 -0.7944,-0.65929 -1.91407,-0.90841 -2.48817,-0.5536 -1.30782,0.80828 -1.30186,0.43754 0.0813,-5.0555 0.85855,-3.40961 0.82479,-5.94295 -0.14248,-10.69282 -0.69718,-3.42354 -1.38582,-9.06704 -1.53032,-12.54112 -0.16921,-4.068306 -0.83035,-6.943733 -1.85751,-8.078741 -2.25322,-2.489782 -1.92464,-12.04467 0.36553,-10.629268 0.41292,0.255197 0.5393,-0.642143 0.28086,-1.994089 -0.25844,-1.351945 -0.82646,-2.237706 -1.26228,-1.968357 -0.43582,0.269348 -0.53847,-0.481263 -0.22813,-1.668027 0.36158,-1.382668 0.18197,-1.921481 -0.5,-1.5 -0.68149,0.421187 -0.86196,-0.11584 -0.50178,-1.493167 0.35027,-1.339451 -0.0369,-2.589181 -1.02622,-3.3126 -1.87863,-1.373689 -3.73836,-13.264834 -2.56896,-16.426015 0.97612,-2.638716 2.51811,-2.722232 3.32496,-0.180083 0.33746,1.063229 2.73028,2.944698 5.31739,4.181043 2.58711,1.236344 4.99102,2.674081 5.34203,3.194972 0.351,0.52089 1.1335,0.640954 1.73888,0.26681 0.76366,-0.471967 0.60958,-1.429793 -0.50321,-3.128115 -2.77951,-4.242075 0.30924,-2.787989 8.07648,3.802147 16.50771,14.006018 18.4461,15.26242 24.62263,15.959581 2.40002,0.270896 2.51391,0.515928 1.69431,3.645005 -0.82113,3.134877 -0.9948,3.249493 -2.65172,1.75 C 162.14039,82.722064 160.76731,82 160.06427,82 c -0.72538,0 -1.02929,-0.648783 -0.70264,-1.5 0.31658,-0.825 0.19218,-1.5 -0.27644,-1.5 -0.46862,0 -1.06709,1.125 -1.32994,2.5 -0.37439,1.958477 -0.0656,2.5 1.42563,2.5 2.92115,0 4.69771,2.142665 3.7226,4.489724 -0.45936,1.105652 -1.32414,3.945949 -1.92175,6.311773 -0.60106,2.37951 -1.84506,4.588599 -2.78414,4.944046 -0.93367,0.353397 -2.25217,1.190167 -2.93,1.859487 -1.70281,1.68143 -4.65323,0.71061 -5.80696,-1.91074 -1.34128,-3.047463 -4.05894,-3.325404 -4.81768,-0.492714 -0.9928,3.706504 -0.7334,10.624484 0.42522,11.340554 0.5875,0.3631 0.83925,1.25675 0.55944,1.98591 -0.62358,1.62502 1.88894,3.88879 3.32859,2.99903 0.57409,-0.35481 1.0438,-0.24375 1.0438,0.24679 0,0.49055 1.0125,0.80466 2.25,0.69804 1.2375,-0.10662 3.46515,0.41858 4.95034,1.16712 2.76866,1.39541 5.63142,1.85941 4.50163,0.72962 -0.34725,-0.34725 -0.006,-1.52391 0.7579,-2.6148 0.76409,-1.0909 1.15006,-2.60678 0.8577,-3.36864 -0.8156,-2.12544 3.35174,-1.71589 5.61993,0.5523 1.31824,1.31824 1.55795,2.09205 0.75,2.42105 -0.82769,0.33704 -0.78545,0.50748 0.13942,0.5625 0.72981,0.0434 2.62212,-1.21624 4.20513,-2.79926 1.58301,-1.58301 3.1234,-2.63301 3.42308,-2.33333 0.29968,0.29968 0.54487,-0.007 0.54487,-0.68081 0,-0.67413 0.41891,-0.96679 0.9309,-0.65036 0.512,0.31644 1.21552,0.11482 1.56338,-0.44804 0.34787,-0.56286 -0.071,-1.29334 -0.9309,-1.6233 C 178.70352,107.05599 178,106.15917 178,105.39301 c 0,-1.80231 -3.94503,-1.74971 -6.36743,0.0849 -1.62286,1.22909 -2.19362,1.20058 -4.35814,-0.21767 -2.34336,-1.53542 -2.45061,-1.98635 -1.81297,-7.622367 0.75057,-6.634126 3.55069,-13.04482 6.13019,-14.034667 0.92226,-0.353905 3.16223,-0.364803 4.97771,-0.02422 1.81548,0.340586 3.76041,0.335233 4.32208,-0.0119 1.33992,-0.828114 0.18306,-3.804622 -1.27048,-3.268861 -0.61653,0.227245 -1.97513,-0.410435 -3.0191,-1.417066 -1.49997,-1.446307 -1.60486,-1.924532 -0.5,-2.279746 0.76897,-0.24723 3.08035,-0.966841 5.13639,-1.599137 2.05603,-0.632296 5.05077,-2.578976 6.65497,-4.325956 7.37697,-8.033557 9.39571,-10.492627 12.25355,-14.926327 3.23466,-5.0183 6.55545,-6.543297 5.5055,-2.528273 -0.50073,1.914805 -0.24484,1.811197 1.85239,-0.75 1.33836,-1.63445 2.72288,-3.871727 3.0767,-4.971727 0.84362,-2.622675 5.44248,-7.5 7.0718,-7.5 0.70344,0 2.81917,0.734461 4.70161,1.632136 3.00946,1.43511 3.49965,2.212748 4.06066,6.441846 0.35091,2.645341 1.33538,6.478714 2.1877,8.518607 1.50654,3.605643 1.11128,9.544996 -1.20219,18.064957 -0.39518,1.455367 0.13361,2.877007 1.6248,4.368192 l 2.21064,2.210646 -2.68056,2.137411 c -1.99883,1.593805 -2.79587,3.280466 -3.1339,6.631808 -0.31116,3.084893 -0.18082,3.86717 0.41561,2.494397 0.6751,-1.553837 1.04145,-0.661512 1.64223,4 0.4253,3.3 0.79905,8.631607 0.83055,11.848017 0.0556,5.67634 -0.0784,5.97802 -4.56404,10.27672 -2.54172,2.43578 -7.23693,5.61441 -10.43379,7.06361 -5.01466,2.27323 -7.67597,4.4293 -7.79074,6.31165 -0.0168,0.275 -1.44963,2.80199 -3.18414,5.61554 -3.12613,5.07091 -3.21334,5.12503 -9.99562,6.20301 -3.76309,0.59811 -7.74198,1.31425 -8.84198,1.59144 -1.1,0.27718 -3.125,-0.0382 -4.5,-0.70081 z M 173,127.7 c 0,-1.44095 -1.95378,-3.7 -3.2,-3.7 -0.96627,0 -1.07076,3.39591 -0.13333,4.33333 C 170.81152,129.47819 173,129.06238 173,127.7 z M 137,100 c -1.31012,-0.846662 -0.78594,-1.391685 1.11797,-1.162431 0.33989,0.04093 1.42746,-1.72071 2.41683,-3.914747 1.42704,-3.164593 1.5433,-4.24068 0.56247,-5.205991 -0.97442,-0.959 -1.75138,-0.622325 -3.66683,1.588933 -2.99636,3.459078 -3.43532,9.703026 -0.68044,9.678926 1.49555,-0.0131 1.5319,-0.15626 0.25,-0.98469 z m 14,-17.5 c 0,-0.825 -0.675,-1.5 -1.5,-1.5 -1.56157,0 -1.98397,1.1827 -0.83333,2.333333 C 149.8173,84.483967 151,84.061574 151,82.5 z"/>
    <path
       style="fill:#af7647"
       d="m 137.39473,241.55225 c -4.85696,-5.33953 -4.99544,-5.41025 -9.91026,-5.06084 -4.00978,0.28507 -6.47567,-0.31496 -12.61033,-3.06852 -4.19422,-1.88259 -8.50073,-3.42289 -9.57,-3.42289 -1.06928,0 -3.78418,1.575 -6.033106,3.5 -2.248929,1.925 -4.519242,3.5 -5.04514,3.5 -0.525897,0 -2.105363,0.90395 -3.509924,2.00878 -3.821409,3.00592 -8.357898,3.62525 -10.743108,1.46666 C 78.887788,239.49346 78,237.92951 78,237 c 0,-3.19841 -8.618681,-8.57319 -12.017607,-7.49441 -1.054707,0.33475 -4.041668,3.04335 -6.637692,6.01912 -5.768836,6.61269 -8.555972,7.77139 -13.911422,5.7834 -4.765214,-1.76888 -11.860281,-3.46095 -15.933279,-3.79984 -1.65,-0.13729 -5.035349,-0.78552 -7.522998,-1.4405 -3.528534,-0.92904 -5.177546,-0.92197 -7.5,0.0322 -1.637351,0.67267 -3.361869,1.13458 -3.832262,1.02646 -0.470393,-0.10811 -1.3988459,0.25457 -2.0632286,0.80596 -0.6643828,0.55139 -2.8670158,0.7333 -4.89474,0.40425 L 0,237.73832 l 0,-35.76926 0,-35.76925 3.75,-0.0757 c 13.694366,-0.27638 18.63152,-0.76869 19.007053,-1.89529 0.527571,-1.58271 4.951124,-1.60431 5.47698,-0.0267 0.2332,0.6996 2.671637,1.2956 5.833333,1.42577 2.987949,0.12302 7.566502,0.54019 10.174563,0.92705 3.41445,0.50646 5.216521,0.31728 6.437231,-0.67578 1.487499,-1.21009 1.614911,-1.16463 1.039456,0.37086 -0.880061,2.34827 1.659374,2.5647 14.781384,1.25977 6.482969,-0.6447 17.304808,-5.21478 21.5,-9.07948 C 91.267922,155.41981 95.176814,154 100.19707,154 105.07882,154 111,157.33336 111,160.08156 111,161.1367 111.45,162 112,162 c 0.55,0 0.90748,0.3375 0.7944,0.75 -0.11308,0.4125 0.54397,2.15545 1.46011,3.87322 0.91615,1.71776 1.42873,3.3602 1.13908,3.64986 -0.28966,0.28966 -0.0467,0.82327 0.53988,1.1858 0.58659,0.36254 1.06653,-0.051 1.06653,-0.91892 0,-3.02893 7.84121,0.53184 13.9431,6.33171 1.27298,1.20997 11.53489,6.2551 14.75793,7.25553 1.5443,0.47935 13.25893,11.80974 13.42397,12.98366 0.0687,0.48903 0.2375,1.33914 0.375,1.88914 0.1375,0.55 0.30625,1.45 0.375,2 0.18287,1.46296 3.32583,1.16268 5.56613,-0.5318 1.06762,-0.80751 2.72298,-1.4682 3.67857,-1.4682 0.95559,0 2.3927,-0.65526 3.19358,-1.45614 1.27485,-1.27485 1.67002,-1.2198 3.17405,0.44214 0.94485,1.04405 1.50416,2.48681 1.2429,3.20614 -0.26126,0.71932 0.64449,2.80843 2.01278,4.64245 4.10163,5.49771 1.69931,6.11961 -7.40755,1.91765 -1.31972,-0.60892 -7.43678,-0.76247 -15.67264,-0.3934 -9.82329,0.4402 -13.6135,0.28913 -13.89448,-0.55381 -0.58229,-1.74689 -2.76834,0.033 -2.76834,2.25399 0,1.06754 -0.45,1.94098 -1,1.94098 -0.55,0 -1,1.125 -1,2.5 0,1.375 0.37396,2.5 0.83102,2.5 0.45706,0 1.39157,1.04739 2.07668,2.32753 C 141.02274,220.411 154.28464,228 156.81051,228 157.87331,228 164,240.34785 164,242.48983 c 0,2.81525 -3.30717,3.93233 -12.4448,4.20354 l -9.23467,0.27409 -4.9258,-5.41521 z M 213.36847,230.25 c 1.87067,-11.24051 3.93508,-18.53152 5.38153,-19.00634 0.71676,-0.23528 1.25,0.43277 1.25,1.56602 0,1.08699 0.64904,2.2254 1.44232,2.52981 1.20165,0.46112 1.00568,1.85561 -1.17438,8.35699 -2.92979,8.7372 -3.84467,10.30352 -6.01819,10.30352 -1.18382,0 -1.37206,-0.80101 -0.88128,-3.75 z m -59.33236,-46.55644 c -3.86955,-1.33334 -9.99461,-8.5425 -13.22727,-15.56842 -1.99037,-4.32591 -1.99133,-4.40375 -0.0858,-6.95597 3.14359,-4.2105 7.68144,-6.12791 15.42695,-6.51847 l 7.09214,-0.35762 2.04974,4.60346 c 1.12736,2.5319 2.09271,6.85346 2.14522,9.60346 0.0525,2.75 0.67892,6.03571 1.392,7.30158 3.94663,7.00612 -4.41604,11.46757 -14.79296,7.89198 z m 37.23405,-40.44489 c -2.26873,-0.38916 -9.54119,-8.27914 -12.7015,-13.78001 -0.95785,-1.66723 -3.16514,-3.88359 -4.9051,-4.92524 -2.65302,-1.58826 -2.86228,-1.96178 -1.29666,-2.3145 1.0268,-0.23133 3.93704,-2.00077 6.46721,-3.93209 2.53018,-1.93133 5.64373,-3.90821 6.91902,-4.39307 2.14807,-0.81669 2.27012,-1.26872 1.65856,-6.14266 -0.74991,-5.97653 -1.8238,-7.74899 -3.61169,-5.9611 -0.66,0.66 -2.61785,1.2 -4.35078,1.2 -1.73292,0 -4.65557,0.52457 -6.49476,1.16572 -2.42925,0.84684 -3.44515,0.86221 -3.71383,0.0562 -0.20341,-0.61025 -1.07655,-0.83836 -1.9403,-0.5069 -1.36523,0.52388 -1.47505,-0.16105 -0.84033,-5.241114 C 167.91516,86.827177 170.09034,84 177.59597,84 c 2.9073,0 5.50559,-0.355316 5.77399,-0.789591 0.2684,-0.434276 -0.82875,-1.671776 -2.43811,-2.75 -3.80828,-2.551448 -3.7076,-4.134312 0.31815,-5.001921 3.52966,-0.760693 12.08178,-8.034304 15.18516,-12.91503 1.06434,-1.673902 2.07752,-3.231636 2.25151,-3.461631 0.17399,-0.229996 1.39776,0.160581 2.71948,0.867948 3.10844,1.663584 4.32823,0.817588 6.95298,-4.822312 3.11397,-6.691083 4.69631,-8.631104 9.02099,-11.060132 3.49967,-1.965643 4.01231,-2.022166 5.56835,-0.613961 0.94261,0.853046 2.01481,1.250012 2.38268,0.882145 0.36787,-0.367867 0.6946,0.418652 0.72608,1.747818 0.0315,1.329167 0.2944,5.271306 0.58428,8.76031 0.38969,4.690271 -0.0373,8.435288 -1.63838,14.368849 -2.19457,8.133175 -2.02607,9.317676 1.414,9.940443 2.66079,0.48169 2.94329,2.083081 0.77756,4.407715 -1.00951,1.083584 -2.31855,3.355888 -2.90897,5.049564 -0.90657,2.60061 -0.70127,3.813678 1.3204,7.801855 1.76704,3.485874 2.39388,6.361041 2.39388,10.980221 0,6.80634 0.18024,6.51138 -8.30284,13.58759 -6.969,5.81323 -8.10989,6.27727 -12.46173,5.06868 C 202.00359,124.59557 202,124.59729 202,128.55902 c 0,2.28115 0.38556,3.32073 1.07382,2.89535 1.09253,-0.67521 1.04369,-0.54256 -2.16162,5.87157 -1.71849,3.43884 -6.60912,6.44297 -9.64204,5.92273 z M 183,96.440983 C 183,96.198442 182.55,96 182,96 c -0.55,0 -1,0.476558 -1,1.059017 0,0.582459 0.45,0.780902 1,0.440983 0.55,-0.339919 1,-0.816476 1,-1.059017 z m -44.37834,36.142187 c -2.31893,-2.82995 -5.24969,-5.03951 -8.15729,-6.14993 -4.47097,-1.70748 -4.53244,-1.79298 -4.16025,-5.78646 0.20778,-2.22936 -0.15367,-5.87439 -0.80322,-8.10008 C 123.77322,106.62674 123.53963,97 125.12367,97 c 0.69776,0 -0.16961,-1.483923 -1.9275,-3.297607 C 120.12559,90.534359 118.94893,87 120.96482,87 c 2.16947,0 3.0351,-3.771805 1.52855,-6.660353 -0.81458,-1.561806 -1.48382,-4.212147 -1.48721,-5.889647 -0.003,-1.6775 -0.55188,-3.595716 -1.21886,-4.262703 -0.66699,-0.666987 -1.27296,-2.340737 -1.34661,-3.719446 -0.20278,-3.795924 3.88426,-4.468316 7.37439,-1.213221 4.64103,4.328491 10.79404,7.660349 13.05476,7.069157 1.19245,-0.311834 1.81485,-1.024947 1.43334,-1.64225 C 138.95163,68.494678 138.98543,64 140.35343,64 141.94718,64 145,67.172512 145,68.828741 145,69.472933 145.81457,70 146.81016,70 c 2.15566,0 8.87815,6.270564 7.29002,6.799939 -0.6051,0.2017 -1.10018,1.004228 -1.10018,1.783394 0,0.875076 -1.05132,1.422521 -2.75,1.43198 -1.5125,0.0084 -3.425,0.458422 -4.25,1 -1.26989,0.833633 -1.28589,1.122608 -0.10428,1.883762 0.76764,0.494492 1.1248,1.60508 0.79367,2.467975 -0.33112,0.862895 -0.1717,1.834869 0.35428,2.159942 1.5489,0.957271 1.1038,4.108741 -1.1103,7.861364 -1.13665,1.926472 -2.32428,5.999074 -2.63919,9.050234 -0.3149,3.05115 -1.18492,6.05577 -1.93337,6.67693 -1.87721,1.55795 -1.71958,4.88448 0.23146,4.88448 0.87575,0 2.75343,0.91337 4.17262,2.02971 1.4192,1.11633 2.84018,1.64601 3.15773,1.17705 1.88403,-2.78226 9.25671,-1.60872 11.05982,1.76043 0.70798,1.32287 0.37808,2.28494 -1.33556,3.89482 -2.52639,2.37342 -4.08568,2.8104 -3.16863,0.88799 0.80631,-1.69027 -1.38324,1.49835 -4.70623,6.85363 -3.78531,6.10036 -7.13943,6.09471 -12.15036,-0.0205 z M 139,100.92498 c 0,-1.102562 0.89587,-3.760698 1.99081,-5.906972 1.78496,-3.4988 1.86285,-7.073247 0.1522,-6.984739 -1.25711,0.06504 -4.75322,3.498043 -5.56721,5.466731 -0.93708,2.266363 -1.54304,9.61151 -0.88708,10.7527 C 135.49301,105.65195 139,102.94502 139,100.92498 z M 144.5,72 c -0.33992,-0.55 -0.81648,-1 -1.05902,-1 C 143.19844,71 143,71.45 143,72 c 0,0.55 0.47656,1 1.05902,1 0.58246,0 0.7809,-0.45 0.44098,-1 z m 7.45452,26.025612 C 151.46299,97.186525 151.04713,96.8926 151.03041,97.372445 150.99532,98.379036 148,96.103251 148,95.070003 c 0,-1.115346 7.85315,-4.244933 9.74006,-3.881547 4.16394,0.801902 1.82085,8.918324 -2.47202,8.563037 -1.33089,-0.110148 -2.82198,-0.886795 -3.31352,-1.725881 z"/>
    <path
       style="fill:#9d5d29"
       d="m 138.2025,242.11033 c -4.88556,-6.08346 -4.69377,-5.98533 -11.69764,-5.98533 -4.58896,0 -7.30291,-0.6348 -11.07025,-2.58937 -2.74499,-1.42415 -6.59891,-2.85031 -8.56425,-3.16924 -3.64474,-0.59146 -4.9483,0.11236 -16.201334,8.74747 -1.601688,1.22907 -4.409953,2.21879 -6.467276,2.27926 -3.26829,0.0961 -3.848568,-0.29794 -5.733681,-3.89312 -2.014708,-3.84234 -8.204288,-8.44689 -11.403844,-8.48355 -0.789677,-0.009 -4.275699,2.90855 -7.746717,6.48355 -6.913179,7.12028 -9.718868,7.98839 -16.533581,5.11567 C 38.699841,238.89404 30.749939,237 27.607773,237 c -1.299939,0 -3.999382,-0.6835 -5.998762,-1.5189 -3.285982,-1.37297 -3.937781,-1.36245 -6.784274,0.10953 -1.73197,0.89564 -5.7760689,1.86664 -8.9868866,2.15779 L 0,238.27778 0,202.88889 0,167.5 3.25,167.24361 c 1.7875,-0.14101 7.4125,-0.45997 12.5,-0.7088 8.445704,-0.41307 9.25,-0.29408 9.25,1.3685 0,1.5741 0.779354,1.79283 5.75,1.61379 3.1625,-0.11391 8.09958,0.33606 10.97129,0.99994 2.871709,0.66387 5.405929,1.02241 5.631599,0.79674 0.22567,-0.22567 3.50109,-0.78918 7.27871,-1.25225 12.192335,-1.49454 21.722282,-4.10052 28.182273,-7.70647 3.47263,-1.93841 6.554902,-4.15249 6.849494,-4.92019 0.630084,-1.64197 6.432373,-3.42138 11.182264,-3.42929 4.46384,-0.007 8.6417,3.07058 8.93221,6.58079 0.12617,1.52444 1.09261,3.57592 2.14765,4.55884 2.43055,2.2644 3.56787,5.76143 2.28952,7.03978 -1.18105,1.18105 -0.36683,5.02687 0.89868,4.24475 0.48747,-0.30128 0.88631,-0.12364 0.88631,0.39475 0,0.51838 3.0375,1.24556 6.75,1.61595 6.87144,0.68554 15.98103,3.09546 17.7,4.68248 0.5225,0.48239 1.93741,0.87708 3.14424,0.87708 2.12909,0 3.94327,1.51543 11.52533,9.62744 4.45023,4.76127 6.51819,10.16337 4.61802,12.06354 -1.69617,1.69617 -6.7465,0.30011 -9.73869,-2.69208 -1.53383,-1.53383 -3.05407,-2.07103 -5.03717,-1.77997 -1.67064,0.24519 -2.76237,-0.0229 -2.65103,-0.65103 C 142.41482,199.98055 141.825,199.5 141,199.5 c -1.00526,0 -1.82983,1.67557 -2.5,5.08016 -0.55,2.79408 -1.7875,5.86372 -2.75,6.82142 -0.9625,0.9577 -1.75,2.00148 -1.75,2.31951 0,1.43569 10.07234,10.01634 14.30461,12.18613 3.09176,1.58507 4.69539,3.05355 4.69539,4.29966 0,2.48049 2.61379,7.4639 5.60909,10.69419 1.315,1.41817 2.39091,2.93173 2.39091,3.36346 0,1.54413 -4.75159,2.54592 -11.86429,2.50139 l -7.23071,-0.0453 -3.7025,-4.61033 z M 128.98469,200.25 c -0.025,-2.85393 -1.31108,-4.04266 -3.48469,-3.22084 -1.83308,0.69306 -1.85394,0.81579 -0.25,1.47049 0.9625,0.39288 1.75,1.34118 1.75,2.10734 0,0.76615 0.45,1.39301 1,1.39301 0.55,0 0.99311,-0.7875 0.98469,-1.75 z M 154,198.3 c 0,-2.01099 -0.28907,-2.41093 -1.13278,-1.56722 -0.62303,0.62303 -0.86216,1.83803 -0.53139,2.7 C 153.25126,201.81836 154,201.3087 154,198.3 z m 12.41916,6.56919 c -0.82428,-1.3337 0.304,-2.43382 4.89852,-4.77624 3.83157,-1.95344 5.22569,-1.38031 4.235,1.74106 -0.44152,1.39111 -1.30894,1.70861 -3.70659,1.35671 -1.99163,-0.29231 -2.89874,-0.0849 -2.49388,0.57015 0.34997,0.56626 -0.0217,1.28206 -0.82593,1.59067 -0.80423,0.30861 -1.75243,0.0916 -2.10712,-0.48235 z m -11.96308,-21.27341 c -3.05302,-1.3299 -10.79643,-9.77041 -13.18214,-14.36887 -2.81604,-5.42792 -0.43135,-10.88628 5.54969,-12.70273 3.32012,-1.00833 16.18062,-0.929 17.15855,0.10585 1.8007,1.90551 4.0406,10.73287 3.48353,13.72844 -0.34089,1.83305 0.0365,4.62126 0.90601,6.6942 1.71377,4.08561 1.19674,5.4005 -2.70717,6.88477 -3.68559,1.40126 -7.47228,1.28583 -11.20847,-0.34166 z m 31.7561,-44.98142 c -2.2234,-2.4121 -4.74311,-5.74039 -5.59936,-7.3962 -0.85626,-1.65581 -2.80692,-3.94301 -4.33482,-5.08268 -1.5279,-1.13967 -2.2155,-2.08638 -1.528,-2.1038 0.6875,-0.0174 1.25,-0.68378 1.25,-1.48079 0,-2.0164 6.27282,-6.59751 10.26748,-7.49845 1.9834,-0.44733 5.00916,-0.24861 7.5249,0.4942 4.07768,1.20399 4.20762,1.17185 4.20762,-1.04085 0,-1.79989 -0.71183,-2.41675 -3.36271,-2.91406 -4.31709,-0.80989 -6.44778,-3.21718 -7.03451,-7.94773 -0.25768,-2.0775 -1.01943,-4.441105 -1.69279,-5.25245 -0.98881,-1.191449 -0.80939,-2.036344 0.93286,-4.392869 3.33737,-4.514035 2.69946,-6.685928 -0.79483,-2.706151 -1.67357,1.906083 -4.71756,3.891103 -7.02887,4.583585 -2.24228,0.671805 -3.8495,1.589367 -3.57159,2.039027 0.2779,0.449661 -0.41045,1.646288 -1.52968,2.659168 -1.54533,1.39851 -2.43676,1.58816 -3.70494,0.78821 -1.92921,-1.21692 -3.42338,-7.114426 -2.02192,-7.980574 0.51993,-0.321336 0.67566,-1.287 0.34606,-2.14592 -0.3596,-0.937106 0.46426,-2.671766 2.06,-4.33736 2.48777,-2.596667 3.0751,-2.74569 9.10655,-2.310593 6.94492,0.500993 7.09423,0.271473 2.8976,-4.454192 l -2.10123,-2.36612 2.94711,-2.13388 c 1.62092,-1.173635 4.84186,-3.840385 7.15765,-5.926112 4.51143,-4.063239 7.88664,-4.336858 10.60422,-0.859656 1.15729,1.480771 1.10724,1.50764 -0.48315,0.259386 -2.0439,-1.604211 -3.43902,-0.944282 -1.46578,0.693357 1.40411,1.165311 8.24464,0.09445 9.88684,-1.547747 0.4963,-0.496299 1.65837,-4.123705 2.58238,-8.060902 1.47913,-6.302579 2.05121,-7.334687 4.78443,-8.631685 1.70744,-0.81023 4.16071,-1.196919 5.45173,-0.85931 1.72648,0.451482 2.14239,0.28226 1.57252,-0.639807 -0.44124,-0.713942 -1.99881,-1.073995 -3.618,-0.836348 -3.96759,0.582318 -4.58456,-1.830015 -0.94888,-3.710094 1.59623,-0.825445 3.57377,-1.243119 4.39453,-0.928164 2.70866,1.039413 3.40743,17.114645 1.10467,25.413201 -1.58571,5.714485 -1.70585,8.999811 -0.32968,9.015313 3.639,0.04099 3.98378,1.572597 1.47885,6.569482 -4.25269,8.483388 -4.32353,10.093558 -0.61245,13.922415 3.00668,3.10211 3.22203,3.75757 2.77228,8.43821 -0.55819,5.80918 -1.84924,7.55755 -10.10135,13.67953 -5.91831,4.3906 -6.51537,4.51576 -13.94412,2.92311 -2.31979,-0.49734 -2.92496,-0.17546 -3.75,1.99455 C 198.7102,129.89243 198.72626,130 200.5,130 c 2.10962,0 1.92283,5.9231 -0.27224,8.63296 -4.54017,5.60493 -8.83725,5.59923 -14.01558,-0.0186 z m -45.0391,-4.42506 C 137.56213,130.39245 133.09281,125 133.5569,125 c 0.20704,0 -1.18357,-1.56 -3.09023,-3.46667 C 128.56,119.62667 127,117.17822 127,116.09235 c 0,-1.08587 -0.45,-2.25243 -1,-2.59235 -0.55,-0.33992 -1,-3.99303 -1,-8.11803 0,-4.74536 0.36729,-7.273009 1,-6.88197 2.21953,1.371743 0.75038,-2.190439 -2.02778,-4.916667 C 121.01085,90.677317 120.077,88 122.02475,88 c 1.44976,0 3.29425,-5.184813 2.10579,-5.919323 -0.94212,-0.582258 -2.73545,-7.851369 -2.31515,-9.384248 0.12118,-0.441965 -0.48666,-1.510555 -1.35075,-2.374646 -1.90942,-1.909418 -1.54845,-5.690233 0.58197,-6.095723 0.85064,-0.161904 3.43814,1.451874 5.75,3.586174 3.06591,2.830432 4.20753,4.666291 4.2187,6.784156 0.0148,2.803138 1.93642,7.343939 1.96938,4.65361 0.008,-0.6875 0.73244,-1.25 1.60893,-1.25 0.87649,0 1.82897,-0.9 2.11663,-2 0.28766,-1.1 1.14553,-2 1.90638,-2 0.76085,0 1.39026,-0.5625 1.39868,-1.25 0.0111,-0.90992 0.2152,-0.937113 0.75,-0.09995 0.99647,1.559838 3.25202,1.905233 6.11682,0.936676 1.8451,-0.623809 2.07054,-1.002715 1,-1.680737 -1.10836,-0.701971 -1.04898,-0.878397 0.29978,-0.890676 0.92504,-0.0084 2.56127,1.222187 3.63605,2.734687 1.78731,2.515196 1.81756,2.878075 0.35431,4.25 -0.87992,0.825 -2.79733,1.95 -4.2609,2.5 -1.46358,0.55 -5.19237,3.869273 -8.28621,7.376163 -5.34469,6.058246 -5.62516,6.644105 -5.62516,11.75 0,3.556897 0.42264,5.421707 1.25,5.515407 0.6875,0.0779 2.375,0.19036 3.75,0.25 3.48927,0.15134 3.76846,3.53787 0.54159,6.56936 -3.51901,3.30593 -3.26242,5.03907 0.746,5.03907 2.60764,0 4.27429,1.00176 8.05832,4.84356 5.35485,5.43659 5.53993,7.64308 1.0475,12.48797 -3.1451,3.39184 -4.88798,3.36169 -8.22033,-0.14223 z"/>
    <path
       style="fill:#5f3014"
       d="M 139.27955,243.20534 C 137.4758,241.34797 136,239.43277 136,238.94933 c 0,-1.77092 -4.50317,-3.21078 -10.42557,-3.33349 -4.14444,-0.0859 -7.58902,-0.87012 -10.84143,-2.46829 -2.62185,-1.28834 -6.46156,-2.56971 -8.53268,-2.84751 -3.18369,-0.42702 -4.40946,0.013 -7.931213,2.84744 -6.856665,5.5184 -13.105854,9.01459 -15.503342,8.67355 -1.453369,-0.20675 -2.993348,-1.74499 -4.32591,-4.32103 -2.029309,-3.92296 -8.176883,-8.44879 -11.523465,-8.48355 -1.400619,-0.0145 -5.649275,3.74078 -12.143587,10.73355 -2.404719,2.58929 -6.019611,2.86851 -11.502567,0.88847 C 37.806825,238.6655 30.408672,237 27.108094,237 25.533331,237 23.684689,236.325 23,235.5 c -1.585646,-1.91059 -4.313688,-1.90627 -8.02458,0.0127 -1.608893,0.83199 -5.6365464,1.7961 -8.9503403,2.14246 L 0,238.28491 0,205.1234 l 0,-33.1615 2.75,0.76905 c 5.2149309,1.45838 37.202502,0.78827 45.75,-0.95842 4.4,-0.89915 10.195032,-1.927 12.877849,-2.28412 2.682817,-0.35711 5.436177,-0.86355 6.118578,-1.12541 0.682402,-0.26186 1.49205,0.48493 1.799219,1.65955 C 70.043462,172.8822 74.5,172.43474 74.5,169.5 c 0,-1.1 0.5625,-1.8875 1.25,-1.75 0.6875,0.1375 1.25,-0.2 1.25,-0.75 0,-0.55 0.6375,-1 1.416667,-1 0.779166,0 1.566666,-0.38274 1.75,-0.85054 0.183333,-0.4678 2.287023,-2.1553 4.674867,-3.75 C 95.835973,154.05691 101,152.84797 101,157.61663 c 0,1.99174 0.50265,2.38337 3.05902,2.38337 1.7847,0 2.80156,-0.41658 2.44098,-1 -0.33992,-0.55 -1.29303,-1 -2.11803,-1 -0.825,0 -1.22114,-0.45122 -0.8803,-1.0027 2.02655,-3.27903 7.37489,5.66554 5.99233,10.02159 -0.40277,1.26903 0.12892,3.3717 1.39533,5.5181 1.12533,1.9073 1.81357,4.07366 1.52943,4.81412 -0.39702,1.03462 1.45394,1.49778 7.99487,2.00056 9.01566,0.693 19.30975,2.97171 20.98281,4.64477 0.55196,0.55196 2.08302,1.00356 3.40235,1.00356 1.38721,0 3.60621,1.29255 5.26199,3.06506 2.32838,2.49255 2.75311,3.65998 2.27386,6.25 -0.92832,5.01688 -2.67681,6.32433 -6.5748,4.91638 -3.92801,-1.41879 -7.76363,-0.60948 -7.74972,1.63519 0.006,0.89835 -0.981,4.45537 -2.19238,7.90447 l -2.2025,6.2711 2.20911,1.54732 c 1.21501,0.85103 1.94806,1.96971 1.629,2.48596 -0.31906,0.51626 0.23591,1.24497 1.23327,1.61937 2.77833,1.04296 11.56739,10.23819 14.86633,15.55336 1.62088,2.61152 3.28455,4.74902 3.69705,4.75 1.2273,0.003 0.85066,3.82155 -0.45663,4.62949 -0.66364,0.41016 -4.13784,0.79275 -7.72044,0.85021 -6.14529,0.0986 -6.69937,-0.0866 -9.79338,-3.27257 z M 130.78161,209.75 c 1.35822,-1.65394 1.19894,-13.64399 -0.19267,-14.50405 -0.59826,-0.36974 -2.43801,-0.58409 -4.08834,-0.47633 -2.48881,0.1625 -2.65947,0.0478 -1.0006,-0.67227 1.8289,-0.79391 1.74993,-0.93375 -0.92306,-1.63461 -2.49588,-0.65442 -3.26239,-0.34235 -5.24503,2.13542 -1.27709,1.59601 -2.33669,3.57684 -2.35468,4.40184 -0.0298,1.36573 10.67712,11.91877 12.15033,11.97574 0.34515,0.0133 1.08948,-0.53824 1.65405,-1.22574 z M 153.9844,183.15145 C 148.79973,180.40086 140,168.37079 140,164.03345 c 0,-0.9126 1.36508,-2.9671 3.03352,-4.56556 2.64339,-2.53253 3.94452,-2.95778 10.11715,-3.30656 3.89599,-0.22014 7.36841,-0.009 7.71648,0.4692 0.34807,0.47821 1.52319,1.36242 2.61137,1.96491 2.35342,1.303 3.7024,6.52503 2.95538,11.44053 -0.33539,2.20691 0.0436,4.65005 1.0082,6.5 2.24868,4.31241 1.96518,5.26702 -2.06422,6.95061 -4.73963,1.98034 -7.16335,1.90905 -11.39348,-0.33513 z M 188.5,138.56605 C 185.507,137.21354 180,131.05048 180,129.05343 180,128.47404 179.58032,128 179.06739,128 c -1.63289,0 -2.28939,-4.04984 -1.11579,-6.88315 1.74465,-4.21196 6.32398,-6.45257 11.57752,-5.66475 5.03271,0.7547 10.47088,5.16387 10.47088,8.4896 0,1.99664 -3.08518,7.24664 -5.61026,9.54689 -0.61065,0.55628 -1.40845,1.86256 -1.7729,2.90285 -0.51953,1.483 -0.37889,1.65597 0.6513,0.80098 1.00526,-0.83429 1.34842,-0.6326 1.46075,0.85856 0.17361,2.30482 -1.89058,2.4755 -6.22889,0.51507 z M 141.31616,133.75 c -3.92641,-4.14828 -5.32418,-6.90826 -5.28436,-10.43426 0.0707,-6.26314 5.77419,-8.4373 9.4682,-3.60929 1.1,1.43768 3.16696,3.85595 4.59325,5.37392 2.33267,2.48264 2.47185,3.04868 1.38512,5.63325 -1.42561,3.39052 -4.12212,6.28638 -5.85363,6.28638 -0.67782,0 -2.61668,-1.4625 -4.30858,-3.25 z m 62.69441,-12.23727 c -1.32948,-1.60192 -0.60738,-4.99961 0.86868,-4.08736 0.49135,0.30367 1.15261,-0.4392 1.46946,-1.65084 0.61835,-2.36459 -0.71689,-3.73436 -3.66445,-3.75922 -3.53866,-0.0298 -5.83098,-1.97768 -5.0868,-4.32237 0.72147,-2.27316 3.43905,-4.78841 4.4791,-4.14562 0.32924,0.20348 0.52187,-1.29893 0.42807,-3.33868 -0.0938,-2.039752 -0.58321,-3.634875 -1.08759,-3.544719 -0.50437,0.09016 -0.93857,-2.01702 -0.96489,-4.682615 -0.053,-5.367534 0.47525,-5.59285 5.23113,-2.231306 3.59977,2.544383 5.61801,2.896831 5.14004,0.897613 C 210.28466,88.394527 196.6434,77.03347 194.5,77.052818 c -1.78774,0.01614 -1.73467,0.18082 0.5,1.551687 1.375,0.843499 1.6757,1.277553 0.66821,0.964565 C 194.66073,79.256081 193.42323,79 192.91821,79 192.4132,79 192,78.325 192,77.5 c 0,-0.825 -0.3375,-1.446711 -0.75,-1.381579 -3.98494,0.629201 -4.21111,-1.505799 -0.56291,-5.313702 3.18927,-3.32888 4.66546,-3.485819 7.54595,-0.802239 C 201.82902,73.352651 211,70.776667 211,66.416441 c 0,-0.700471 0.5625,-1.888534 1.25,-2.640139 5.72208,-6.255633 6.02265,-6.742856 4.95398,-8.030525 -1.769,-2.131513 0.1799,-3.925465 3.87831,-3.56996 l 3.37256,0.324183 0.26075,6 c 0.14341,3.3 -0.45173,9.251842 -1.32254,13.226317 -1.44755,6.606789 -1.44653,7.363068 0.0118,8.821428 2.20065,2.200655 1.99608,4.284603 -0.8788,8.952255 -3.27298,5.313996 -3.15554,6.6075 0.96326,10.60956 3.66565,3.56174 4.30649,5.6946 2.31065,7.69044 -1.72669,1.72669 -5.47968,1.47712 -6.20484,-0.41262 -0.50932,-1.32726 -0.88977,-1.38776 -2.14994,-0.34192 -1.34346,1.11498 -1.1444,1.66969 1.62425,4.52622 3.70575,3.82336 3.23725,5.19573 -2.06302,6.04328 -2.16865,0.34678 -4.86557,1.67063 -6.11693,3.00264 -2.5582,2.72308 -5.08862,3.05235 -6.87895,0.89513 z M 125.57534,93.75 c -0.25451,-1.2375 -0.37559,-4.95 -0.26905,-8.25 0.19232,-5.956954 0.21523,-6 3.19371,-6 1.89583,0 2.90529,0.468154 2.74268,1.271967 -0.14153,0.699582 0.90486,1.713829 2.32531,2.253882 1.42045,0.540054 3.27976,1.67904 4.1318,2.531082 1.39889,1.398889 1.31927,1.810786 -0.82079,4.246118 -5.84429,6.650641 -10.41905,8.248033 -11.30366,3.946951 z"/>
    <path
       style="fill:#1d130b"
       d="m 140.08621,242.38246 c -1.13243,-1.43964 -1.81353,-3.01464 -1.51357,-3.5 0.98139,-1.58791 3.18268,-0.9261 3.71711,1.11754 0.30438,1.16394 1.36401,2 2.53484,2 1.10651,0 2.72364,0.27314 3.59362,0.60699 2.89228,1.10987 1.63454,2.39301 -2.34563,2.39301 -3.04521,0 -4.38992,-0.58797 -5.98637,-2.61754 z M 44.5,240.44103 c -2.2,-0.80008 -7.302922,-2.15317 -11.339826,-3.00687 -4.036904,-0.8537 -8.874404,-2.28398 -10.75,-3.17839 -3.166681,-1.51008 -3.666124,-1.50414 -6.994802,0.0832 -1.971545,0.94016 -6.2533414,1.98832 -9.5151022,2.32924 L -0.03020458,237.28807 0.23489771,207.50404 0.5,177.72002 5,176.38732 c 5.399449,-1.59907 10.74838,-1.86968 17.540227,-0.88739 2.960219,0.42813 7.324125,0.25483 10.574516,-0.41995 3.043858,-0.6319 7.500792,-1.38595 9.904296,-1.67565 2.403505,-0.28971 4.722183,-0.7444 5.152617,-1.01042 0.430434,-0.26602 4.91006,-1.15124 9.954723,-1.96716 8.914234,-1.44177 9.225247,-1.42645 11.061824,0.54489 2.17123,2.33054 3.850041,2.55832 5.736797,0.77836 1.06,-1 1.416667,-1 1.783333,0 0.490335,1.33728 3.126909,1.63419 5.70988,0.64301 C 84.589353,171.55987 84.401777,170.26229 82,169.5 c -3.404678,-1.0806 -2.353731,-4.20839 2.337858,-6.95785 5.298352,-3.10504 5.658185,-3.12355 5.677455,-0.29215 0.03103,4.55906 1.391264,5.00304 5.448823,1.7785 3.652692,-2.90279 7.785024,-3.8244 10.147714,-2.26319 0.61152,0.40408 1.3709,2.08469 1.68752,3.73469 1.35896,7.08208 3.47265,12.79291 5.06464,13.68384 0.94181,0.52706 2.93269,0.691 4.42419,0.36431 2.88805,-0.63259 16.87458,1.53636 21.4618,3.32817 2.15714,0.8426 2.75,1.72627 2.75,4.09893 0,2.03886 0.49512,3.02475 1.51905,3.02475 1.12098,0 1.35463,-0.65514 0.89159,-2.5 -0.90061,-3.58832 1.484,-3.23566 5.39319,0.79761 3.59917,3.71339 4.01242,6.4728 1.44432,9.64426 -1.67598,2.06975 -1.91278,2.0962 -5.46788,0.61079 C 142.73645,197.6987 140.21203,197 139.17043,197 c -1.04159,0 -4.87116,-1.35 -8.51016,-3 -3.63899,-1.65 -7.50072,-3 -8.58161,-3 -2.49705,0 -5.07866,3.63828 -5.07866,7.15741 0,1.49181 -0.45967,3.92142 -1.0215,5.39913 -1.25172,3.29229 0.1871,5.47442 3.1063,4.71103 1.97533,-0.51656 6.9152,3.03623 6.9152,4.97347 0,0.49082 1.20807,2.47626 2.68459,4.41209 2.17787,2.85533 3.21409,3.44197 5.4898,3.10797 3.14255,-0.46123 6.1568,2.12221 7.12468,6.10638 0.43725,1.7999 -0.12966,2.96053 -2.36465,4.84116 -1.61688,1.36051 -2.68702,2.88264 -2.37809,3.38251 0.9543,1.54409 -3.23537,1.00051 -4.55633,-0.59115 -1.40102,-1.68813 -6.5534,-2.03162 -7.5,-0.5 -0.99686,1.61295 -3.24303,1.1851 -10.5,-2 -3.75937,-1.65 -8.01054,-3 -9.44703,-3 -1.49903,0 -4.836066,1.68958 -7.832388,3.96564 -2.87132,2.1811 -6.345582,4.81786 -7.720582,5.85948 -4.476002,3.39076 -6.578103,3.52669 -8.899503,0.57551 -1.155273,-1.46869 -2.10698,-3.39716 -2.114905,-4.28549 C 77.970003,233.36752 69.117264,228 66.250473,228 c -0.961666,0 -4.448931,2.87526 -7.749478,6.38947 -3.300547,3.5142 -6.900995,6.64074 -8.000995,6.94785 -1.1,0.30711 -3.8,-0.0962 -6,-0.89629 z m 89.64583,-12.22028 c -0.74479,-0.25128 -2.31979,0.5438 -3.5,1.76682 l -2.14583,2.22368 3.5,-1.76682 c 2.1124,-1.06636 2.96313,-1.94795 2.14583,-2.22368 z m -30.11542,-6.66188 c 0.0884,2.73591 1.87162,-2.84225 2.48147,-7.76236 0.67381,-5.43618 0.59637,-5.7285 -1.65247,-6.23714 -1.29767,-0.29351 -3.25919,-0.42694 -4.35893,-0.29651 -1.424318,0.16892 -2.095094,-0.43696 -2.331779,-2.1062 -0.279836,-1.97357 -0.0038,-2.23909 1.749516,-1.68262 C 101.65826,204.02631 102,203.71332 102,201.56739 102,200.15532 101.64197,199 101.20439,199 c -0.43759,0 -0.90264,-1.6875 -1.03345,-3.75 -0.13081,-2.0625 -0.669388,-6.45 -1.196836,-9.75 -0.527447,-3.3 -0.962395,-6.3375 -0.96655,-6.75 -0.01241,-1.2325 -3.682973,-0.84827 -4.776397,0.5 -1.144567,1.41133 -2.074664,8.91911 -2.374368,19.16601 -0.173564,5.93417 0.0482,6.95277 1.562097,7.17496 2.455134,0.36034 2.451713,0.34831 1.623742,5.71123 -0.708093,4.58645 -0.613385,4.86841 2.107985,6.27568 1.608492,0.83179 2.849387,2.297 2.849387,3.36447 0,2.50255 2.18062,3.23028 3.75,1.25149 0.6875,-0.86686 1.26368,-1.15259 1.28041,-0.63497 z M 39.833846,183.12385 c 1.06305,-0.67387 0.993974,-0.97594 -0.340242,-1.48793 C 37.647836,180.92763 36,181.59887 36,183.05902 c 0,1.16311 2.046672,1.19772 3.833846,0.0648 z m 2.708859,-3.05475 c -0.316431,-0.512 -0.117988,-1.21356 0.440983,-1.55902 C 44.290661,177.70233 44.301724,176 43,176 c -0.55,0 -1,0.675 -1,1.5 0,0.825 -0.45,1.5 -1,1.5 -0.55,0 -1,0.45 -1,1 0,0.55 0.701558,1 1.559017,1 0.857459,0 1.300119,-0.41891 0.983688,-0.9309 z m 105.942775,-2.62215 c -9.36086,-9.78479 -10.26158,-16.51004 -2.63457,-19.67112 3.50875,-1.45424 12.79456,-1.01052 16.25029,0.7765 3.56349,1.84275 4.20321,4.09159 3.37198,11.85354 -0.4541,4.24031 -0.31348,6.5748 0.42348,7.03026 1.96863,1.21669 1.16794,4.2134 -1.44371,5.40335 -1.40088,0.63829 -4.15609,1.16052 -6.12269,1.16052 -3.09931,0 -4.41079,-0.87297 -9.84478,-6.55305 z m 34.42818,-44.53938 c -1.58882,-1.70083 -3.42275,-4.87472 -4.0754,-7.05308 -1.1054,-3.6895 -1.01434,-4.13295 1.33007,-6.47737 3.46327,-3.46326 8.77304,-4.54591 12.77924,-2.60565 C 196.40253,118.44476 200,122.48019 200,124.68248 200,126.9343 190.34662,136 187.94883,136 c -1.18053,0 -3.44635,-1.39159 -5.03517,-3.09243 z M 140.23082,132.25 c -2.68255,-3.8717 -3.56632,-6.36218 -3.28243,-9.25 0.66194,-6.7336 5.56876,-6.788 10.46644,-0.11602 4.01165,5.46496 4.26497,6.70046 2.02847,9.89351 -2.26101,3.22805 -6.79009,2.96872 -9.21248,-0.52749 z M 208.97037,84.746823 C 206.78667,83.140909 205,81.190909 205,80.41349 205,79.63607 204.16571,79 203.14602,79 c -1.01968,0 -3.15718,-1.226379 -4.75,-2.725288 -1.59281,-1.498908 -3.23352,-2.623908 -3.64602,-2.5 -1.38864,0.417125 -0.76483,-1.831792 0.65974,-2.378451 1.99949,-0.767275 7.7296,2.420571 8.30483,4.620243 0.26538,1.014831 1.13654,2.096121 1.93591,2.402867 0.81222,0.311679 1.18387,0.121618 0.84244,-0.430825 C 206.1569,77.444846 206.38329,77 206.99601,77 c 0.61273,0 2.23724,-2.539734 3.61003,-5.643854 C 213.23146,65.419602 217.60915,60 219.77898,60 c 1.91818,0 3.10777,4.125034 2.01866,7 -0.52088,1.375 -0.97769,5.425 -1.01513,9 -0.0741,7.07756 -1.0437,10 -3.31769,10 C 216.65917,86 216,86.375 216,86.833333 c 0,1.692477 -3.17074,0.751349 -7.02963,-2.08651 z"/>
  </g>
</svg>
